<?xml version="1.0" encoding="utf-8"?>
<!-- Generator: Adobe Illustrator 26.1.0, SVG Export Plug-In . SVG Version: 6.00 Build 0)  -->
<svg version="1.1" id="Layer_1" xmlns="http://www.w3.org/2000/svg" xmlns:xlink="http://www.w3.org/1999/xlink" x="0px" y="0px"
	 viewBox="0 0 595.28 841.89" style="enable-background:new 0 0 595.28 841.89;" xml:space="preserve">
<style type="text/css">
	.st0{fill:#3B4852;}
	.st1{fill:#353A8D;}
</style>
<g>
	<path class="st0" d="M138.19,545.4H77.37v-88.73h60.83v17.76H95.13v17.75h29.14v17.76H95.13v17.7h43.07V545.4z"/>
	<path class="st0" d="M185.22,545.4h-38.61v-16.83h38.61c1.16,0,2.14-0.41,2.97-1.23c0.83-0.83,1.24-1.82,1.24-2.97
		c0-1.19-0.41-1.98-1.24-2.35c-0.83-0.38-1.81-0.56-2.97-0.56h-17.57c-2.92,0-5.67-0.56-8.23-1.67c-2.55-1.12-4.79-2.63-6.69-4.55
		c-1.89-1.92-3.39-4.16-4.48-6.72c-1.09-2.56-1.64-5.3-1.64-8.23c0-2.93,0.55-5.67,1.64-8.23c1.09-2.56,2.59-4.79,4.48-6.68
		c1.9-1.9,4.13-3.4,6.69-4.49c2.56-1.09,5.3-1.64,8.23-1.64h34.22v16.83h-34.22c-1.15,0-2.14,0.41-2.97,1.24
		c-0.82,0.83-1.23,1.81-1.23,2.97c0,1.19,0.41,2.22,1.23,3.07c0.83,0.85,1.82,1.27,2.97,1.27h17.57c2.89,0,5.61,0.48,8.17,1.46
		c2.56,0.97,4.79,2.32,6.69,4.05c1.9,1.74,3.4,3.82,4.51,6.25c1.12,2.43,1.68,5.1,1.68,7.98c0,2.93-0.56,5.66-1.68,8.2
		c-1.11,2.53-2.62,4.76-4.51,6.68c-1.9,1.92-4.12,3.42-6.69,4.52C190.83,544.86,188.11,545.4,185.22,545.4z"/>
	<path class="st0" d="M241.59,529.2c0.66,0.21,1.33,0.34,1.98,0.4c0.66,0.06,1.32,0.09,1.98,0.09c1.65,0,3.24-0.23,4.77-0.68
		c1.52-0.45,2.95-1.1,4.29-1.95c1.35-0.84,2.54-1.88,3.59-3.1c1.05-1.21,1.91-2.56,2.57-4.05l12.37,12.44
		c-1.57,2.23-3.37,4.23-5.42,6c-2.04,1.77-4.24,3.28-6.61,4.51c-2.37,1.24-4.87,2.18-7.5,2.82c-2.61,0.64-5.31,0.96-8.07,0.96
		c-4.66,0-9.05-0.86-13.15-2.59c-4.1-1.73-7.7-4.15-10.77-7.24c-3.08-3.09-5.5-6.77-7.28-11.04c-1.77-4.27-2.66-8.96-2.66-14.08
		c0-5.24,0.89-10.02,2.66-14.35c1.77-4.33,4.2-8.02,7.28-11.08c3.07-3.05,6.66-5.42,10.77-7.12c4.1-1.7,8.48-2.54,13.15-2.54
		c2.76,0,5.47,0.34,8.11,0.99c2.63,0.66,5.14,1.61,7.52,2.85c2.37,1.24,4.59,2.75,6.65,4.55c2.07,1.79,3.88,3.81,5.45,6.03
		L241.59,529.2z M250.25,494.36c-0.78-0.29-1.55-0.47-2.32-0.56c-0.76-0.08-1.55-0.12-2.38-0.12c-2.31,0-4.48,0.42-6.53,1.27
		c-2.04,0.85-3.82,2.05-5.32,3.62c-1.5,1.57-2.69,3.46-3.56,5.66c-0.87,2.21-1.3,4.69-1.3,7.46c0,0.62,0.03,1.33,0.1,2.11
		c0.06,0.78,0.16,1.58,0.3,2.38c0.15,0.81,0.32,1.58,0.53,2.33c0.21,0.75,0.48,1.4,0.81,1.98L250.25,494.36z"/>
	<path class="st0" d="M241.59,529.2c0.66,0.21,1.33,0.34,1.98,0.4c0.66,0.06,1.32,0.09,1.98,0.09c1.65,0,3.24-0.23,4.77-0.68
		c1.52-0.45,2.95-1.1,4.29-1.95c1.35-0.84,2.54-1.88,3.59-3.1c1.05-1.21,1.91-2.56,2.57-4.05l12.37,12.44
		c-1.57,2.23-3.37,4.23-5.42,6c-2.04,1.77-4.24,3.28-6.61,4.51c-2.37,1.24-4.87,2.18-7.5,2.82c-2.61,0.64-5.31,0.96-8.07,0.96
		c-4.66,0-9.05-0.86-13.15-2.59c-4.1-1.73-7.7-4.15-10.77-7.24c-3.08-3.09-5.5-6.77-7.28-11.04c-1.77-4.27-2.66-8.96-2.66-14.08
		c0-5.24,0.89-10.02,2.66-14.35c1.77-4.33,4.2-8.02,7.28-11.08c3.07-3.05,6.66-5.42,10.77-7.12c4.1-1.7,8.48-2.54,13.15-2.54
		c2.76,0,5.47,0.34,8.11,0.99c2.63,0.66,5.14,1.61,7.52,2.85c2.37,1.24,4.59,2.75,6.65,4.55c2.07,1.79,3.88,3.81,5.45,6.03
		L241.59,529.2z M250.25,494.36c-0.78-0.29-1.55-0.47-2.32-0.56c-0.76-0.08-1.55-0.12-2.38-0.12c-2.31,0-4.48,0.42-6.53,1.27
		c-2.04,0.85-3.82,2.05-5.32,3.62c-1.5,1.57-2.69,3.46-3.56,5.66c-0.87,2.21-1.3,4.69-1.3,7.46c0,0.62,0.03,1.33,0.1,2.11
		c0.06,0.78,0.16,1.58,0.3,2.38c0.15,0.81,0.32,1.58,0.53,2.33c0.21,0.75,0.48,1.4,0.81,1.98L250.25,494.36z"/>
	<path class="st0" d="M298.76,545.4h-17.01v-92.63h17.01V545.4z"/>
	<path class="st0" d="M328.66,545.4h-17.02v-92.63h17.02V545.4z"/>
	<path class="st0" d="M367.89,529.2c0.66,0.21,1.32,0.34,1.98,0.4c0.66,0.06,1.32,0.09,1.98,0.09c1.65,0,3.24-0.23,4.77-0.68
		c1.53-0.45,2.96-1.1,4.3-1.95c1.34-0.84,2.53-1.88,3.58-3.1c1.05-1.21,1.92-2.56,2.57-4.05l12.37,12.44
		c-1.57,2.23-3.37,4.23-5.41,6c-2.05,1.77-4.25,3.28-6.62,4.51c-2.38,1.24-4.86,2.18-7.49,2.82c-2.62,0.64-5.32,0.96-8.08,0.96
		c-4.66,0-9.04-0.86-13.15-2.59c-4.1-1.73-7.7-4.15-10.77-7.24c-3.07-3.09-5.5-6.77-7.27-11.04c-1.77-4.27-2.66-8.96-2.66-14.08
		c0-5.24,0.89-10.02,2.66-14.35c1.77-4.33,4.2-8.02,7.27-11.08c3.08-3.05,6.67-5.42,10.77-7.12c4.11-1.7,8.48-2.54,13.15-2.54
		c2.76,0,5.46,0.34,8.1,0.99c2.65,0.66,5.15,1.61,7.51,2.85c2.38,1.24,4.6,2.75,6.66,4.55c2.06,1.79,3.87,3.81,5.44,6.03
		L367.89,529.2z M376.55,494.36c-0.78-0.29-1.56-0.47-2.32-0.56c-0.77-0.08-1.56-0.12-2.38-0.12c-2.31,0-4.48,0.42-6.53,1.27
		c-2.05,0.85-3.82,2.05-5.32,3.62c-1.51,1.57-2.69,3.46-3.56,5.66c-0.86,2.21-1.3,4.69-1.3,7.46c0,0.62,0.03,1.33,0.09,2.11
		c0.06,0.78,0.16,1.58,0.31,2.38c0.15,0.81,0.32,1.58,0.53,2.33c0.2,0.75,0.47,1.4,0.8,1.98L376.55,494.36z"/>
	<path class="st0" d="M424.94,545.4h-16.89v-66.27h4.07l5.57,7.86c2.72-2.48,5.81-4.38,9.27-5.72c3.47-1.34,7.06-2.01,10.78-2.01
		h14.91v16.83h-14.91c-1.77,0-3.45,0.33-5.01,0.99c-1.57,0.66-2.94,1.57-4.09,2.72c-1.15,1.15-2.06,2.52-2.72,4.09
		c-0.66,1.56-0.99,3.24-0.99,5.01V545.4z"/>
	<path class="st0" d="M496.16,545.4h-38.61v-16.83h38.61c1.16,0,2.14-0.41,2.97-1.23c0.82-0.83,1.24-1.82,1.24-2.97
		c0-1.19-0.42-1.98-1.24-2.35c-0.83-0.38-1.82-0.56-2.97-0.56h-17.57c-2.92,0-5.67-0.56-8.23-1.67c-2.56-1.12-4.79-2.63-6.68-4.55
		c-1.91-1.92-3.4-4.16-4.49-6.72c-1.1-2.56-1.64-5.3-1.64-8.23c0-2.93,0.54-5.67,1.64-8.23c1.09-2.56,2.58-4.79,4.49-6.68
		c1.9-1.9,4.12-3.4,6.68-4.49c2.55-1.09,5.3-1.64,8.23-1.64h34.22v16.83h-34.22c-1.15,0-2.15,0.41-2.97,1.24
		c-0.83,0.83-1.24,1.81-1.24,2.97c0,1.19,0.41,2.22,1.24,3.07c0.82,0.85,1.81,1.27,2.97,1.27h17.57c2.89,0,5.61,0.48,8.17,1.46
		c2.55,0.97,4.78,2.32,6.68,4.05c1.89,1.74,3.4,3.82,4.52,6.25c1.12,2.43,1.67,5.1,1.67,7.98c0,2.93-0.56,5.66-1.67,8.2
		c-1.12,2.53-2.63,4.76-4.52,6.68c-1.91,1.92-4.13,3.42-6.68,4.52C501.77,544.86,499.05,545.4,496.16,545.4z"/>
	<g>
		<g>
			<path class="st1" d="M133.25,592.39c0,4.25-0.67,8.15-2.02,11.7c-1.34,3.55-3.25,6.61-5.7,9.17c-2.46,2.56-5.4,4.55-8.86,5.96
				c-3.44,1.41-7.25,2.12-11.42,2.12c-4.17,0-7.97-0.71-11.4-2.12c-3.44-1.41-6.38-3.4-8.84-5.96c-2.46-2.56-4.36-5.62-5.71-9.17
				c-1.34-3.55-2.02-7.45-2.02-11.7c0-4.25,0.67-8.15,2.02-11.7c1.35-3.55,3.25-6.61,5.71-9.19c2.46-2.57,5.4-4.57,8.84-6
				c3.43-1.43,7.23-2.14,11.4-2.14c4.17,0,7.98,0.71,11.42,2.14c3.45,1.43,6.4,3.43,8.86,6c2.46,2.58,4.36,5.64,5.7,9.19
				C132.58,584.24,133.25,588.14,133.25,592.39z M125.37,592.39c0-3.48-0.47-6.61-1.42-9.39c-0.95-2.77-2.3-5.11-4.04-7.03
				c-1.74-1.92-3.86-3.39-6.34-4.42c-2.48-1.03-5.25-1.55-8.31-1.55c-3.04,0-5.8,0.52-8.28,1.55c-2.49,1.03-4.61,2.5-6.36,4.42
				c-1.76,1.92-3.11,4.26-4.06,7.03c-0.95,2.77-1.42,5.9-1.42,9.39c0,3.48,0.47,6.61,1.42,9.37c0.95,2.76,2.3,5.1,4.06,7.01
				c1.75,1.92,3.87,3.38,6.36,4.4c2.48,1.02,5.24,1.53,8.28,1.53c3.06,0,5.83-0.51,8.31-1.53c2.49-1.02,4.6-2.48,6.34-4.4
				c1.74-1.91,3.09-4.25,4.04-7.01C124.9,599,125.37,595.88,125.37,592.39z"/>
			<path class="st1" d="M145.01,620.75v-40.12h4.2c1,0,1.64,0.49,1.9,1.46l0.56,4.36c1.74-1.93,3.69-3.48,5.84-4.67
				c2.15-1.19,4.64-1.78,7.47-1.78c2.19,0,4.13,0.36,5.8,1.09c1.68,0.73,3.08,1.75,4.2,3.09c1.13,1.34,1.97,2.94,2.56,4.81
				c0.58,1.88,0.87,3.95,0.87,6.22v25.55h-7.05v-25.55c0-3.04-0.69-5.39-2.08-7.07c-1.39-1.68-3.5-2.51-6.36-2.51
				c-2.09,0-4.03,0.5-5.84,1.5c-1.81,1-3.48,2.36-5.01,4.08v29.55H145.01z"/>
			<path class="st1" d="M199.28,562.41v58.34h-7.05v-58.34H199.28z"/>
			<path class="st1" d="M223.52,568.04c0,0.69-0.14,1.33-0.41,1.92c-0.28,0.59-0.65,1.12-1.11,1.58c-0.46,0.46-0.99,0.83-1.6,1.09
				c-0.61,0.27-1.25,0.4-1.94,0.4c-0.68,0-1.33-0.13-1.92-0.4c-0.59-0.26-1.12-0.63-1.58-1.09c-0.47-0.46-0.83-0.99-1.09-1.58
				c-0.26-0.59-0.4-1.23-0.4-1.92s0.14-1.34,0.4-1.96c0.26-0.62,0.62-1.16,1.09-1.62c0.46-0.46,0.98-0.83,1.58-1.09
				c0.59-0.26,1.24-0.4,1.92-0.4c0.69,0,1.34,0.13,1.94,0.4c0.61,0.26,1.14,0.63,1.6,1.09c0.46,0.46,0.83,1,1.11,1.62
				C223.38,566.7,223.52,567.35,223.52,568.04z M221.93,580.63v40.12h-7.05v-40.12H221.93z"/>
			<path class="st1" d="M236.75,620.75v-40.12h4.2c1,0,1.64,0.49,1.9,1.46l0.56,4.36c1.74-1.93,3.69-3.48,5.84-4.67
				c2.15-1.19,4.64-1.78,7.47-1.78c2.19,0,4.12,0.36,5.8,1.09c1.68,0.73,3.08,1.75,4.2,3.09c1.12,1.34,1.97,2.94,2.55,4.81
				c0.58,1.88,0.87,3.95,0.87,6.22v25.55h-7.05v-25.55c0-3.04-0.69-5.39-2.08-7.07c-1.39-1.68-3.51-2.51-6.36-2.51
				c-2.09,0-4.03,0.5-5.84,1.5c-1.81,1-3.48,2.36-5.01,4.08v29.55H236.75z"/>
			<path class="st1" d="M299.05,580c2.4,0,4.62,0.4,6.65,1.21c2.04,0.81,3.79,1.97,5.27,3.49c1.48,1.52,2.64,3.39,3.47,5.62
				c0.83,2.23,1.25,4.77,1.25,7.62c0,1.11-0.12,1.85-0.36,2.22c-0.24,0.37-0.69,0.55-1.35,0.55h-26.69
				c0.05,2.54,0.39,4.74,1.02,6.62c0.63,1.87,1.51,3.44,2.62,4.69c1.11,1.26,2.43,2.19,3.96,2.81c1.53,0.62,3.25,0.93,5.15,0.93
				c1.77,0,3.29-0.2,4.58-0.61c1.28-0.41,2.38-0.85,3.31-1.33c0.92-0.48,1.7-0.92,2.31-1.33c0.62-0.41,1.16-0.61,1.6-0.61
				c0.58,0,1.03,0.22,1.35,0.67l1.98,2.58c-0.87,1.06-1.91,1.97-3.13,2.75c-1.21,0.78-2.51,1.42-3.9,1.92
				c-1.38,0.5-2.82,0.88-4.3,1.13c-1.48,0.25-2.94,0.38-4.4,0.38c-2.77,0-5.33-0.47-7.66-1.41c-2.34-0.94-4.36-2.31-6.06-4.12
				c-1.7-1.81-3.03-4.04-3.98-6.71c-0.96-2.67-1.43-5.73-1.43-9.19c0-2.8,0.43-5.41,1.29-7.84c0.86-2.43,2.09-4.53,3.7-6.32
				c1.61-1.78,3.58-3.18,5.9-4.2C293.53,580.5,296.14,580,299.05,580z M299.21,585.19c-3.41,0-6.09,0.98-8.04,2.95
				c-1.96,1.97-3.17,4.69-3.65,8.18h21.82c0-1.64-0.22-3.13-0.67-4.5c-0.45-1.36-1.11-2.53-1.98-3.52c-0.88-0.99-1.94-1.76-3.19-2.3
				C302.25,585.46,300.82,585.19,299.21,585.19z"/>
			<path class="st1" d="M374.89,572.87c-0.23,0.39-0.49,0.69-0.75,0.89c-0.26,0.2-0.61,0.29-1.03,0.29c-0.45,0-0.97-0.22-1.56-0.67
				c-0.59-0.45-1.34-0.94-2.26-1.48c-0.91-0.54-2.01-1.04-3.28-1.49c-1.28-0.45-2.83-0.67-4.65-0.67c-1.72,0-3.24,0.23-4.56,0.69
				c-1.32,0.46-2.42,1.09-3.3,1.88c-0.89,0.79-1.55,1.72-2,2.79c-0.45,1.07-0.68,2.22-0.68,3.47c0,1.59,0.39,2.9,1.17,3.94
				c0.78,1.04,1.81,1.93,3.09,2.67c1.28,0.74,2.73,1.38,4.35,1.92c1.63,0.54,3.29,1.1,5,1.68c1.7,0.58,3.37,1.24,4.99,1.96
				s3.08,1.64,4.35,2.75c1.29,1.11,2.32,2.47,3.09,4.08c0.78,1.61,1.17,3.59,1.17,5.94c0,2.48-0.42,4.81-1.27,6.99
				c-0.84,2.18-2.08,4.07-3.7,5.69c-1.62,1.61-3.62,2.88-5.98,3.8c-2.37,0.92-5.05,1.39-8.06,1.39c-3.68,0-7.02-0.67-10.04-2
				c-3.02-1.33-5.6-3.13-7.74-5.4l2.22-3.65c0.21-0.29,0.47-0.53,0.77-0.73c0.3-0.2,0.64-0.29,1.01-0.29c0.56,0,1.19,0.29,1.91,0.89
				c0.71,0.59,1.6,1.25,2.67,1.96c1.07,0.71,2.36,1.37,3.88,1.96c1.52,0.59,3.37,0.89,5.57,0.89c1.82,0,3.45-0.25,4.87-0.75
				c1.42-0.5,2.63-1.21,3.63-2.12c0.98-0.91,1.74-2,2.27-3.27c0.53-1.27,0.8-2.68,0.8-4.24c0-1.72-0.39-3.12-1.17-4.22
				c-0.78-1.1-1.8-2.02-3.07-2.75c-1.27-0.74-2.71-1.37-4.34-1.88c-1.63-0.52-3.29-1.04-4.99-1.58c-1.71-0.54-3.37-1.17-4.99-1.88
				c-1.63-0.71-3.07-1.64-4.34-2.77c-1.27-1.14-2.29-2.56-3.07-4.26c-0.78-1.7-1.17-3.81-1.17-6.32c0-2.01,0.39-3.95,1.17-5.82
				c0.78-1.88,1.91-3.54,3.39-4.99c1.48-1.45,3.31-2.61,5.48-3.49c2.18-0.87,4.68-1.31,7.51-1.31c3.17,0,6.06,0.5,8.68,1.5
				c2.61,1,4.9,2.46,6.85,4.36L374.89,572.87z"/>
			<path class="st1" d="M389.08,620.75v-58.34h7.05v23.6c1.72-1.82,3.62-3.28,5.7-4.38c2.09-1.09,4.49-1.64,7.21-1.64
				c2.19,0,4.12,0.36,5.8,1.09c1.68,0.73,3.08,1.75,4.2,3.09c1.12,1.34,1.97,2.94,2.55,4.81c0.58,1.88,0.87,3.95,0.87,6.22v25.55
				h-7.05v-25.55c0-3.04-0.69-5.39-2.08-7.07c-1.39-1.68-3.51-2.51-6.36-2.51c-2.09,0-4.03,0.5-5.84,1.5
				c-1.81,1-3.48,2.36-5.01,4.08v29.55H389.08z"/>
			<path class="st1" d="M451.73,580c2.93,0,5.58,0.49,7.94,1.46c2.36,0.98,4.37,2.36,6.02,4.16c1.65,1.8,2.91,3.97,3.8,6.51
				c0.88,2.55,1.33,5.4,1.33,8.54c0,3.17-0.44,6.02-1.33,8.56c-0.89,2.53-2.15,4.7-3.8,6.5c-1.65,1.8-3.66,3.17-6.02,4.14
				c-2.36,0.96-5.01,1.45-7.94,1.45c-2.93,0-5.58-0.48-7.94-1.45c-2.36-0.96-4.38-2.34-6.04-4.14c-1.67-1.8-2.94-3.96-3.84-6.5
				c-0.9-2.53-1.35-5.39-1.35-8.56c0-3.14,0.45-5.99,1.35-8.54c0.9-2.55,2.17-4.72,3.84-6.51c1.66-1.8,3.67-3.18,6.04-4.16
				C446.16,580.48,448.8,580,451.73,580z M451.73,615.8c3.97,0,6.92-1.33,8.87-3.98c1.95-2.65,2.93-6.36,2.93-11.11
				c0-4.78-0.97-8.5-2.93-11.17c-1.95-2.67-4.91-4-8.87-4c-2,0-3.75,0.34-5.22,1.03c-1.48,0.69-2.71,1.68-3.7,2.97
				c-0.99,1.29-1.73,2.89-2.22,4.77c-0.49,1.89-0.74,4.02-0.74,6.4c0,2.38,0.24,4.5,0.74,6.38c0.49,1.88,1.23,3.45,2.22,4.73
				c0.99,1.28,2.22,2.26,3.7,2.95C447.98,615.46,449.73,615.8,451.73,615.8z"/>
			<path class="st1" d="M481.92,634.34v-53.71h4.2c1,0,1.64,0.49,1.9,1.46l0.59,4.75c1.72-2.08,3.68-3.76,5.88-5.03
				c2.2-1.27,4.75-1.9,7.62-1.9c2.3,0,4.39,0.44,6.26,1.33c1.88,0.88,3.47,2.19,4.8,3.92c1.32,1.73,2.34,3.87,3.05,6.44
				c0.71,2.56,1.07,5.5,1.07,8.83c0,2.96-0.39,5.71-1.19,8.26c-0.79,2.55-1.92,4.75-3.41,6.61c-1.48,1.86-3.29,3.33-5.44,4.4
				c-2.15,1.07-4.58,1.61-7.27,1.61c-2.49,0-4.6-0.41-6.36-1.23c-1.76-0.82-3.31-1.98-4.65-3.49v17.74H481.92z M499.78,585.62
				c-2.3,0-4.31,0.53-6.04,1.58c-1.74,1.05-3.32,2.55-4.78,4.47v19.41c1.3,1.74,2.71,2.97,4.26,3.68c1.55,0.71,3.27,1.07,5.17,1.07
				c3.72,0,6.59-1.33,8.6-4c2.01-2.67,3.01-6.47,3.01-11.41c0-2.61-0.23-4.86-0.69-6.74c-0.47-1.87-1.13-3.41-2-4.61
				c-0.87-1.2-1.94-2.08-3.21-2.63C502.83,585.9,501.39,585.62,499.78,585.62z"/>
		</g>
	</g>
	<polygon class="st1" points="386.33,265.88 386.33,415.9 208.24,301.3 208.24,267.38 383.7,371.75 327.2,323.86 327.2,303.65 	"/>
	<polygon class="st0" points="386.33,460.79 213.5,352.29 270.73,402.05 270.73,421.13 208.24,457.43 208.24,314.03 386.33,428.63 	
		"/>
	<g>
		<g>
			<path class="st1" d="M344.88,272.61c-3.72,0-6.73-3.02-6.73-6.74c0-24.67-18.33-44.75-40.86-44.75
				c-22.53,0-40.86,20.07-40.86,44.75c0,3.72-3.02,6.74-6.74,6.74c-3.72,0-6.73-3.02-6.73-6.74c0-32.1,24.37-58.22,54.33-58.22
				c29.96,0,54.33,26.11,54.33,58.22C351.62,269.6,348.6,272.61,344.88,272.61z"/>
		</g>
	</g>
</g>
</svg>
